<mxfile host="app.diagrams.net" agent="Mozilla/5.0 (Windows NT 10.0; Win64; x64) AppleWebKit/537.36 (KHTML, like Gecko) Chrome/131.0.0.0 Safari/537.36 Edg/131.0.0.0" version="24.8.6">
  <diagram name="Seite-1" id="yF7TX113oomvVDygkrKH">
    <mxGraphModel dx="1572" dy="2099" grid="1" gridSize="10" guides="1" tooltips="1" connect="1" arrows="1" fold="1" page="1" pageScale="1" pageWidth="827" pageHeight="1169" math="0" shadow="0">
      <root>
        <mxCell id="0" />
        <mxCell id="1" parent="0" />
        <mxCell id="SHZt3_RxEiCJ5zNNEcXz-19" value="What we want:" style="text;strokeColor=none;fillColor=none;align=left;verticalAlign=middle;spacingLeft=4;spacingRight=4;overflow=hidden;points=[[0,0.5],[1,0.5]];portConstraint=eastwest;rotatable=0;whiteSpace=wrap;html=1;" vertex="1" parent="1">
          <mxGeometry x="10" y="10" width="95" height="30" as="geometry" />
        </mxCell>
        <mxCell id="SHZt3_RxEiCJ5zNNEcXz-20" value="" style="group" vertex="1" connectable="0" parent="1">
          <mxGeometry x="50" y="-20" width="187.5" height="210" as="geometry" />
        </mxCell>
        <mxCell id="SHZt3_RxEiCJ5zNNEcXz-10" style="edgeStyle=orthogonalEdgeStyle;rounded=0;orthogonalLoop=1;jettySize=auto;html=1;entryX=0;entryY=0.5;entryDx=0;entryDy=0;endArrow=none;endFill=0;" edge="1" parent="SHZt3_RxEiCJ5zNNEcXz-20" source="SHZt3_RxEiCJ5zNNEcXz-8" target="SHZt3_RxEiCJ5zNNEcXz-9">
          <mxGeometry relative="1" as="geometry" />
        </mxCell>
        <mxCell id="SHZt3_RxEiCJ5zNNEcXz-5" value="" style="ellipse;whiteSpace=wrap;html=1;" vertex="1" parent="SHZt3_RxEiCJ5zNNEcXz-20">
          <mxGeometry x="67.49999999999999" y="45.00000000000001" width="7.499999999999999" height="7.500000000000002" as="geometry" />
        </mxCell>
        <mxCell id="SHZt3_RxEiCJ5zNNEcXz-6" value="" style="ellipse;whiteSpace=wrap;html=1;" vertex="1" parent="SHZt3_RxEiCJ5zNNEcXz-20">
          <mxGeometry x="67.49999999999999" y="202.50000000000003" width="7.499999999999999" height="7.500000000000002" as="geometry" />
        </mxCell>
        <mxCell id="SHZt3_RxEiCJ5zNNEcXz-8" value="" style="ellipse;whiteSpace=wrap;html=1;" vertex="1" parent="SHZt3_RxEiCJ5zNNEcXz-20">
          <mxGeometry x="67.49999999999999" y="97.50000000000001" width="7.499999999999999" height="7.500000000000002" as="geometry" />
        </mxCell>
        <mxCell id="SHZt3_RxEiCJ5zNNEcXz-9" value="" style="ellipse;whiteSpace=wrap;html=1;" vertex="1" parent="SHZt3_RxEiCJ5zNNEcXz-20">
          <mxGeometry x="180" y="97.50000000000001" width="7.499999999999999" height="7.500000000000002" as="geometry" />
        </mxCell>
        <mxCell id="SHZt3_RxEiCJ5zNNEcXz-14" value="" style="endArrow=none;html=1;rounded=0;entryX=0.5;entryY=0;entryDx=0;entryDy=0;exitX=0.5;exitY=1;exitDx=0;exitDy=0;" edge="1" parent="SHZt3_RxEiCJ5zNNEcXz-20" source="SHZt3_RxEiCJ5zNNEcXz-86" target="SHZt3_RxEiCJ5zNNEcXz-6">
          <mxGeometry width="50" height="50" relative="1" as="geometry">
            <mxPoint x="71" y="160" as="sourcePoint" />
            <mxPoint x="67.49999999999999" y="97.50000000000001" as="targetPoint" />
          </mxGeometry>
        </mxCell>
        <mxCell id="SHZt3_RxEiCJ5zNNEcXz-16" value="" style="endArrow=none;html=1;rounded=0;exitX=0.5;exitY=0;exitDx=0;exitDy=0;entryX=0.5;entryY=1;entryDx=0;entryDy=0;" edge="1" parent="SHZt3_RxEiCJ5zNNEcXz-20" source="SHZt3_RxEiCJ5zNNEcXz-8" target="SHZt3_RxEiCJ5zNNEcXz-5">
          <mxGeometry width="50" height="50" relative="1" as="geometry">
            <mxPoint x="82.5" y="82.50000000000001" as="sourcePoint" />
            <mxPoint x="119.99999999999999" y="45.00000000000001" as="targetPoint" />
          </mxGeometry>
        </mxCell>
        <mxCell id="SHZt3_RxEiCJ5zNNEcXz-84" value="" style="ellipse;whiteSpace=wrap;html=1;" vertex="1" parent="SHZt3_RxEiCJ5zNNEcXz-20">
          <mxGeometry y="150" width="7.499999999999999" height="7.500000000000002" as="geometry" />
        </mxCell>
        <mxCell id="SHZt3_RxEiCJ5zNNEcXz-87" value="" style="endArrow=none;html=1;rounded=0;entryX=0.5;entryY=1;entryDx=0;entryDy=0;exitX=0.5;exitY=0;exitDx=0;exitDy=0;" edge="1" parent="SHZt3_RxEiCJ5zNNEcXz-20" source="SHZt3_RxEiCJ5zNNEcXz-86" target="SHZt3_RxEiCJ5zNNEcXz-8">
          <mxGeometry width="50" height="50" relative="1" as="geometry">
            <mxPoint x="121" y="130" as="sourcePoint" />
            <mxPoint x="121" y="183" as="targetPoint" />
          </mxGeometry>
        </mxCell>
        <mxCell id="SHZt3_RxEiCJ5zNNEcXz-86" value="" style="ellipse;whiteSpace=wrap;html=1;" vertex="1" parent="SHZt3_RxEiCJ5zNNEcXz-20">
          <mxGeometry x="67.5" y="150" width="7.499999999999999" height="7.500000000000002" as="geometry" />
        </mxCell>
        <mxCell id="SHZt3_RxEiCJ5zNNEcXz-85" value="" style="endArrow=none;html=1;rounded=0;exitX=1;exitY=0.5;exitDx=0;exitDy=0;entryX=0;entryY=0.5;entryDx=0;entryDy=0;" edge="1" parent="SHZt3_RxEiCJ5zNNEcXz-20" source="SHZt3_RxEiCJ5zNNEcXz-84" target="SHZt3_RxEiCJ5zNNEcXz-86">
          <mxGeometry width="50" height="50" relative="1" as="geometry">
            <mxPoint x="120" y="210" as="sourcePoint" />
            <mxPoint x="50" y="154" as="targetPoint" />
          </mxGeometry>
        </mxCell>
        <mxCell id="SHZt3_RxEiCJ5zNNEcXz-21" value="What OSM offers:&lt;br&gt;OSM doesn&#39;t include nodes" style="text;strokeColor=none;fillColor=none;align=left;verticalAlign=middle;spacingLeft=4;spacingRight=4;overflow=hidden;points=[[0,0.5],[1,0.5]];portConstraint=eastwest;rotatable=0;whiteSpace=wrap;html=1;" vertex="1" parent="1">
          <mxGeometry x="290" y="10" width="190" height="30" as="geometry" />
        </mxCell>
        <mxCell id="SHZt3_RxEiCJ5zNNEcXz-22" value="" style="group;strokeColor=none;" vertex="1" connectable="0" parent="1">
          <mxGeometry x="322.5" width="187.5" height="220" as="geometry" />
        </mxCell>
        <mxCell id="SHZt3_RxEiCJ5zNNEcXz-24" style="edgeStyle=orthogonalEdgeStyle;rounded=0;orthogonalLoop=1;jettySize=auto;html=1;endArrow=none;endFill=0;strokeColor=#3399FF;" edge="1" parent="SHZt3_RxEiCJ5zNNEcXz-22">
          <mxGeometry relative="1" as="geometry">
            <mxPoint x="67.5" y="100" as="sourcePoint" />
            <mxPoint x="187.5" y="100" as="targetPoint" />
            <Array as="points">
              <mxPoint x="180" y="100" />
            </Array>
          </mxGeometry>
        </mxCell>
        <mxCell id="SHZt3_RxEiCJ5zNNEcXz-31" value="" style="endArrow=none;html=1;rounded=0;strokeColor=#66FF66;" edge="1" parent="SHZt3_RxEiCJ5zNNEcXz-22">
          <mxGeometry width="50" height="50" relative="1" as="geometry">
            <mxPoint x="67.5" y="120" as="sourcePoint" />
            <mxPoint x="67.5" y="100" as="targetPoint" />
          </mxGeometry>
        </mxCell>
        <mxCell id="SHZt3_RxEiCJ5zNNEcXz-32" value="" style="endArrow=none;html=1;rounded=0;strokeColor=#66FF66;" edge="1" parent="SHZt3_RxEiCJ5zNNEcXz-22">
          <mxGeometry width="50" height="50" relative="1" as="geometry">
            <mxPoint x="67.5" y="140" as="sourcePoint" />
            <mxPoint x="67.5" y="160" as="targetPoint" />
            <Array as="points">
              <mxPoint x="67.5" y="160" />
            </Array>
          </mxGeometry>
        </mxCell>
        <mxCell id="SHZt3_RxEiCJ5zNNEcXz-33" value="" style="endArrow=none;html=1;rounded=0;strokeColor=#FF9933;" edge="1" parent="SHZt3_RxEiCJ5zNNEcXz-22">
          <mxGeometry width="50" height="50" relative="1" as="geometry">
            <mxPoint x="67.5" y="100" as="sourcePoint" />
            <mxPoint x="67.5" y="50" as="targetPoint" />
          </mxGeometry>
        </mxCell>
        <mxCell id="SHZt3_RxEiCJ5zNNEcXz-39" value="" style="endArrow=none;html=1;rounded=0;strokeColor=#FF9933;" edge="1" parent="SHZt3_RxEiCJ5zNNEcXz-22">
          <mxGeometry width="50" height="50" relative="1" as="geometry">
            <mxPoint x="67.5" y="120" as="sourcePoint" />
            <mxPoint x="67.5" y="140" as="targetPoint" />
          </mxGeometry>
        </mxCell>
        <mxCell id="SHZt3_RxEiCJ5zNNEcXz-36" value="a) subdivided edges" style="text;strokeColor=none;fillColor=none;align=left;verticalAlign=middle;spacingLeft=4;spacingRight=4;overflow=hidden;points=[[0,0.5],[1,0.5]];portConstraint=eastwest;rotatable=0;whiteSpace=wrap;html=1;" vertex="1" parent="SHZt3_RxEiCJ5zNNEcXz-22">
          <mxGeometry x="-22.5" y="50" width="90" height="30" as="geometry" />
        </mxCell>
        <mxCell id="SHZt3_RxEiCJ5zNNEcXz-88" value="" style="endArrow=none;html=1;rounded=0;exitX=1;exitY=0.5;exitDx=0;exitDy=0;entryX=0;entryY=0.5;entryDx=0;entryDy=0;strokeColor=#3399FF;" edge="1" parent="SHZt3_RxEiCJ5zNNEcXz-22">
          <mxGeometry width="50" height="50" relative="1" as="geometry">
            <mxPoint x="7.5" y="160" as="sourcePoint" />
            <mxPoint x="67.5" y="160" as="targetPoint" />
          </mxGeometry>
        </mxCell>
        <mxCell id="SHZt3_RxEiCJ5zNNEcXz-89" value="" style="endArrow=none;html=1;rounded=0;strokeColor=#FF9933;" edge="1" parent="SHZt3_RxEiCJ5zNNEcXz-22">
          <mxGeometry width="50" height="50" relative="1" as="geometry">
            <mxPoint x="67.5" y="200" as="sourcePoint" />
            <mxPoint x="67.5" y="160" as="targetPoint" />
          </mxGeometry>
        </mxCell>
        <mxCell id="SHZt3_RxEiCJ5zNNEcXz-53" value="b) overspanning edges" style="text;strokeColor=none;fillColor=none;align=left;verticalAlign=middle;spacingLeft=4;spacingRight=4;overflow=hidden;points=[[0,0.5],[1,0.5]];portConstraint=eastwest;rotatable=0;whiteSpace=wrap;html=1;" vertex="1" parent="1">
          <mxGeometry x="510" y="50" width="100" height="30" as="geometry" />
        </mxCell>
        <mxCell id="SHZt3_RxEiCJ5zNNEcXz-65" value="" style="group" vertex="1" connectable="0" parent="1">
          <mxGeometry x="550" width="187.5" height="210" as="geometry" />
        </mxCell>
        <mxCell id="SHZt3_RxEiCJ5zNNEcXz-66" style="edgeStyle=orthogonalEdgeStyle;rounded=0;orthogonalLoop=1;jettySize=auto;html=1;entryX=0;entryY=0.5;entryDx=0;entryDy=0;endArrow=none;endFill=0;strokeColor=#3399FF;" edge="1" parent="SHZt3_RxEiCJ5zNNEcXz-65">
          <mxGeometry relative="1" as="geometry">
            <mxPoint x="70" y="101" as="sourcePoint" />
            <mxPoint x="180.00000000003865" y="101.25" as="targetPoint" />
          </mxGeometry>
        </mxCell>
        <mxCell id="SHZt3_RxEiCJ5zNNEcXz-71" value="" style="endArrow=none;html=1;rounded=0;strokeColor=#FF9933;" edge="1" parent="SHZt3_RxEiCJ5zNNEcXz-65">
          <mxGeometry width="50" height="50" relative="1" as="geometry">
            <mxPoint x="70" y="50" as="sourcePoint" />
            <mxPoint x="70" y="200" as="targetPoint" />
          </mxGeometry>
        </mxCell>
        <mxCell id="SHZt3_RxEiCJ5zNNEcXz-76" value="" style="group;strokeColor=none;" vertex="1" connectable="0" parent="1">
          <mxGeometry x="422.5" y="160" width="187.5" height="220" as="geometry" />
        </mxCell>
        <mxCell id="SHZt3_RxEiCJ5zNNEcXz-77" style="edgeStyle=orthogonalEdgeStyle;rounded=0;orthogonalLoop=1;jettySize=auto;html=1;endArrow=none;endFill=0;strokeColor=#3399FF;" edge="1" parent="SHZt3_RxEiCJ5zNNEcXz-76">
          <mxGeometry relative="1" as="geometry">
            <mxPoint x="67.5" y="100" as="sourcePoint" />
            <mxPoint x="187.5" y="100" as="targetPoint" />
            <Array as="points">
              <mxPoint x="180" y="100" />
            </Array>
          </mxGeometry>
        </mxCell>
        <mxCell id="SHZt3_RxEiCJ5zNNEcXz-79" value="" style="endArrow=none;html=1;rounded=0;strokeColor=#66FF66;" edge="1" parent="SHZt3_RxEiCJ5zNNEcXz-76">
          <mxGeometry width="50" height="50" relative="1" as="geometry">
            <mxPoint x="67.5" y="130" as="sourcePoint" />
            <mxPoint x="67.5" y="200" as="targetPoint" />
          </mxGeometry>
        </mxCell>
        <mxCell id="SHZt3_RxEiCJ5zNNEcXz-80" value="" style="endArrow=none;html=1;rounded=0;strokeColor=#FF9933;" edge="1" parent="SHZt3_RxEiCJ5zNNEcXz-76">
          <mxGeometry width="50" height="50" relative="1" as="geometry">
            <mxPoint x="67.5" y="130" as="sourcePoint" />
            <mxPoint x="67.5" y="50" as="targetPoint" />
          </mxGeometry>
        </mxCell>
        <mxCell id="SHZt3_RxEiCJ5zNNEcXz-82" value="c) combination of a) &amp;amp; b)" style="text;strokeColor=none;fillColor=none;align=left;verticalAlign=middle;spacingLeft=4;spacingRight=4;overflow=hidden;points=[[0,0.5],[1,0.5]];portConstraint=eastwest;rotatable=0;whiteSpace=wrap;html=1;" vertex="1" parent="SHZt3_RxEiCJ5zNNEcXz-76">
          <mxGeometry x="-30" y="50" width="97.5" height="30" as="geometry" />
        </mxCell>
        <mxCell id="SHZt3_RxEiCJ5zNNEcXz-91" value="" style="endArrow=none;html=1;rounded=0;exitX=1;exitY=0.5;exitDx=0;exitDy=0;entryX=0;entryY=0.5;entryDx=0;entryDy=0;strokeColor=#3399FF;" edge="1" parent="SHZt3_RxEiCJ5zNNEcXz-76">
          <mxGeometry width="50" height="50" relative="1" as="geometry">
            <mxPoint x="137.5" as="sourcePoint" />
            <mxPoint x="197.5" as="targetPoint" />
          </mxGeometry>
        </mxCell>
        <mxCell id="SHZt3_RxEiCJ5zNNEcXz-92" value="" style="endArrow=none;html=1;rounded=0;exitX=1;exitY=0.5;exitDx=0;exitDy=0;entryX=0;entryY=0.5;entryDx=0;entryDy=0;strokeColor=#3399FF;" edge="1" parent="SHZt3_RxEiCJ5zNNEcXz-76">
          <mxGeometry width="50" height="50" relative="1" as="geometry">
            <mxPoint x="7.5" y="160" as="sourcePoint" />
            <mxPoint x="67.5" y="160" as="targetPoint" />
          </mxGeometry>
        </mxCell>
      </root>
    </mxGraphModel>
  </diagram>
</mxfile>
